STARTFONT 2.1
FONT -Adobe-Helvetica-Medium-R-Narrow--14-100-100-100-P-65-ISO8859-1
SIZE 10 100 100
FONTBOUNDINGBOX 14 15 -2 -3

STARTPROPERTIES 26
_DEC_DEVICE_FONTNAMES "PS=Helvetica-Narrow"
FONTNAME_REGISTRY ""
FAMILY_NAME "Helvetica"
FOUNDRY "Adobe"
WEIGHT_NAME "Medium"
SLANT "R"
SETWIDTH_NAME "Narrow"
ADD_STYLE_NAME ""
PIXEL_SIZE 14
POINT_SIZE 100
RESOLUTION_X 100
RESOLUTION_Y 100
SPACING "P"
AVERAGE_WIDTH 65
CHARSET_REGISTRY "ISO8859"
CHARSET_ENCODING "1"
CHARSET_COLLECTIONS "ASCII ISO8859-1 ADOBE-STANDARD"
FULL_NAME "Helvetica Narrow"
COPYRIGHT "Copyright (c) 1991 Adobe Systems, Inc."
CAP_HEIGHT 11
X_HEIGHT 8
WEIGHT 10
QUAD_WIDTH 7
DEFAULT_CHAR 0
FONT_DESCENT 3
FONT_ASCENT 12
ENDPROPERTIES

CHARS 190

STARTCHAR space
ENCODING 32
SWIDTH 228 0
DWIDTH 3 0
BBX 1 1 0 0
BITMAP
00
ENDCHAR

STARTCHAR exclam
ENCODING 33
SWIDTH 228 0
DWIDTH 3 0
BBX 1 11 1 0
BITMAP
80
80
80
80
80
80
80
80
00
80
80
ENDCHAR

STARTCHAR quotedbl
ENCODING 34
SWIDTH 291 0
DWIDTH 4 0
BBX 3 3 0 8
BITMAP
A0
A0
A0
ENDCHAR

STARTCHAR numbersign
ENCODING 35
SWIDTH 456 0
DWIDTH 7 0
BBX 7 10 0 0
BITMAP
14
14
14
7E
28
28
FC
50
50
50
ENDCHAR

STARTCHAR dollar
ENCODING 36
SWIDTH 456 0
DWIDTH 7 0
BBX 5 14 1 -2
BITMAP
20
20
70
A8
A8
A0
60
30
28
A8
A8
70
20
20
ENDCHAR

STARTCHAR percent
ENCODING 37
SWIDTH 729 0
DWIDTH 10 0
BBX 9 11 0 0
BITMAP
6100
9200
9200
6400
0400
0800
1000
1300
2480
2480
4300
ENDCHAR

STARTCHAR ampersand
ENCODING 38
SWIDTH 547 0
DWIDTH 9 0
BBX 8 10 1 0
BITMAP
30
48
48
30
20
52
8A
84
8A
71
ENDCHAR

STARTCHAR quoteright
ENCODING 39
SWIDTH 182 0
DWIDTH 3 0
BBX 2 3 0 8
BITMAP
C0
40
80
ENDCHAR

STARTCHAR parenleft
ENCODING 40
SWIDTH 273 0
DWIDTH 4 0
BBX 3 14 0 -3
BITMAP
20
40
40
80
80
80
80
80
80
80
80
40
40
20
ENDCHAR

STARTCHAR parenright
ENCODING 41
SWIDTH 273 0
DWIDTH 4 0
BBX 3 14 0 -3
BITMAP
80
40
40
20
20
20
20
20
20
20
20
40
40
80
ENDCHAR

STARTCHAR asterisk
ENCODING 42
SWIDTH 319 0
DWIDTH 6 0
BBX 5 5 0 6
BITMAP
20
A8
70
A8
20
ENDCHAR

STARTCHAR plus
ENCODING 43
SWIDTH 479 0
DWIDTH 7 0
BBX 5 5 1 1
BITMAP
20
20
F8
20
20
ENDCHAR

STARTCHAR comma
ENCODING 44
SWIDTH 228 0
DWIDTH 3 0
BBX 2 4 0 -2
BITMAP
40
40
40
80
ENDCHAR

STARTCHAR minus
ENCODING 45
SWIDTH 479 0
DWIDTH 7 0
BBX 5 1 1 3
BITMAP
F8
ENDCHAR

STARTCHAR period
ENCODING 46
SWIDTH 228 0
DWIDTH 3 0
BBX 1 2 1 0
BITMAP
80
80
ENDCHAR

STARTCHAR slash
ENCODING 47
SWIDTH 228 0
DWIDTH 4 0
BBX 4 11 0 0
BITMAP
10
10
20
20
20
40
40
40
80
80
80
ENDCHAR

STARTCHAR zero
ENCODING 48
SWIDTH 456 0
DWIDTH 7 0
BBX 5 11 1 0
BITMAP
70
88
88
88
88
88
88
88
88
88
70
ENDCHAR

STARTCHAR one
ENCODING 49
SWIDTH 456 0
DWIDTH 7 0
BBX 3 11 1 0
BITMAP
20
E0
20
20
20
20
20
20
20
20
20
ENDCHAR

STARTCHAR two
ENCODING 50
SWIDTH 456 0
DWIDTH 7 0
BBX 5 11 1 0
BITMAP
70
88
88
08
10
20
20
40
80
80
F8
ENDCHAR

STARTCHAR three
ENCODING 51
SWIDTH 456 0
DWIDTH 7 0
BBX 5 11 1 0
BITMAP
70
88
08
08
08
30
08
08
88
88
70
ENDCHAR

STARTCHAR four
ENCODING 52
SWIDTH 456 0
DWIDTH 7 0
BBX 6 11 0 0
BITMAP
18
18
28
28
48
48
88
FC
08
08
08
ENDCHAR

STARTCHAR five
ENCODING 53
SWIDTH 456 0
DWIDTH 7 0
BBX 5 11 1 0
BITMAP
F8
80
80
80
F0
08
08
08
88
88
70
ENDCHAR

STARTCHAR six
ENCODING 54
SWIDTH 456 0
DWIDTH 7 0
BBX 5 11 1 0
BITMAP
70
88
80
80
B0
C8
88
88
88
88
70
ENDCHAR

STARTCHAR seven
ENCODING 55
SWIDTH 456 0
DWIDTH 7 0
BBX 5 11 1 0
BITMAP
F8
08
08
10
10
10
20
20
20
40
40
ENDCHAR

STARTCHAR eight
ENCODING 56
SWIDTH 456 0
DWIDTH 7 0
BBX 5 11 1 0
BITMAP
70
88
88
88
88
70
88
88
88
88
70
ENDCHAR

STARTCHAR nine
ENCODING 57
SWIDTH 456 0
DWIDTH 7 0
BBX 5 11 1 0
BITMAP
70
88
88
88
88
88
78
08
88
88
70
ENDCHAR

STARTCHAR colon
ENCODING 58
SWIDTH 228 0
DWIDTH 3 0
BBX 1 8 1 0
BITMAP
80
80
00
00
00
00
80
80
ENDCHAR

STARTCHAR semicolon
ENCODING 59
SWIDTH 228 0
DWIDTH 3 0
BBX 2 10 0 -2
BITMAP
40
40
00
00
00
00
40
40
40
80
ENDCHAR

STARTCHAR less
ENCODING 60
SWIDTH 479 0
DWIDTH 7 0
BBX 6 5 0 1
BITMAP
0C
30
C0
30
0C
ENDCHAR

STARTCHAR equal
ENCODING 61
SWIDTH 479 0
DWIDTH 7 0
BBX 6 3 0 2
BITMAP
FC
00
FC
ENDCHAR

STARTCHAR greater
ENCODING 62
SWIDTH 479 0
DWIDTH 7 0
BBX 6 5 0 1
BITMAP
C0
30
0C
30
C0
ENDCHAR

STARTCHAR question
ENCODING 63
SWIDTH 456 0
DWIDTH 6 0
BBX 5 11 0 0
BITMAP
70
D8
88
88
08
10
20
20
00
20
20
ENDCHAR

STARTCHAR at
ENCODING 64
SWIDTH 832 0
DWIDTH 11 0
BBX 10 12 0 -1
BITMAP
1E00
2180
4040
4D40
9240
A240
A240
A680
9B00
4000
4100
3E00
ENDCHAR

STARTCHAR A
ENCODING 65
SWIDTH 547 0
DWIDTH 9 0
BBX 7 11 1 0
BITMAP
10
10
28
28
28
44
44
7C
82
82
82
ENDCHAR

STARTCHAR B
ENCODING 66
SWIDTH 547 0
DWIDTH 8 0
BBX 6 11 1 0
BITMAP
F8
8C
84
84
88
F8
8C
84
84
88
F0
ENDCHAR

STARTCHAR C
ENCODING 67
SWIDTH 592 0
DWIDTH 9 0
BBX 7 11 1 0
BITMAP
18
66
42
80
80
80
80
80
42
66
18
ENDCHAR

STARTCHAR D
ENCODING 68
SWIDTH 592 0
DWIDTH 9 0
BBX 7 11 1 0
BITMAP
F0
8C
84
82
82
82
82
82
84
8C
F0
ENDCHAR

STARTCHAR E
ENCODING 69
SWIDTH 547 0
DWIDTH 7 0
BBX 5 11 1 0
BITMAP
F8
80
80
80
80
F0
80
80
80
80
F8
ENDCHAR

STARTCHAR F
ENCODING 70
SWIDTH 501 0
DWIDTH 6 0
BBX 4 11 1 0
BITMAP
F0
80
80
80
80
F0
80
80
80
80
80
ENDCHAR

STARTCHAR G
ENCODING 71
SWIDTH 638 0
DWIDTH 9 0
BBX 7 11 1 0
BITMAP
18
66
42
80
80
8E
82
82
42
66
1A
ENDCHAR

STARTCHAR H
ENCODING 72
SWIDTH 592 0
DWIDTH 8 0
BBX 6 11 1 0
BITMAP
84
84
84
84
84
FC
84
84
84
84
84
ENDCHAR

STARTCHAR I
ENCODING 73
SWIDTH 228 0
DWIDTH 3 0
BBX 1 11 1 0
BITMAP
80
80
80
80
80
80
80
80
80
80
80
ENDCHAR

STARTCHAR J
ENCODING 74
SWIDTH 410 0
DWIDTH 6 0
BBX 5 11 0 0
BITMAP
08
08
08
08
08
08
08
08
88
88
70
ENDCHAR

STARTCHAR K
ENCODING 75
SWIDTH 547 0
DWIDTH 8 0
BBX 7 11 1 0
BITMAP
84
88
90
A0
C0
C0
A0
90
88
84
82
ENDCHAR

STARTCHAR L
ENCODING 76
SWIDTH 456 0
DWIDTH 7 0
BBX 5 11 1 0
BITMAP
80
80
80
80
80
80
80
80
80
80
F8
ENDCHAR

STARTCHAR M
ENCODING 77
SWIDTH 683 0
DWIDTH 11 0
BBX 9 11 1 0
BITMAP
8080
8080
C180
C180
A280
A280
9480
9480
8880
8880
8880
ENDCHAR

STARTCHAR N
ENCODING 78
SWIDTH 592 0
DWIDTH 9 0
BBX 7 11 1 0
BITMAP
82
C2
C2
A2
A2
92
92
8A
8A
86
86
ENDCHAR

STARTCHAR O
ENCODING 79
SWIDTH 638 0
DWIDTH 10 0
BBX 8 11 1 0
BITMAP
18
66
42
81
81
81
81
81
42
66
18
ENDCHAR

STARTCHAR P
ENCODING 80
SWIDTH 547 0
DWIDTH 8 0
BBX 6 11 1 0
BITMAP
F8
8C
84
84
8C
F8
80
80
80
80
80
ENDCHAR

STARTCHAR Q
ENCODING 81
SWIDTH 638 0
DWIDTH 10 0
BBX 8 11 1 0
BITMAP
18
66
42
81
81
81
81
89
46
66
19
ENDCHAR

STARTCHAR R
ENCODING 82
SWIDTH 592 0
DWIDTH 8 0
BBX 6 11 1 0
BITMAP
F8
8C
84
84
88
F0
88
84
84
84
84
ENDCHAR

STARTCHAR S
ENCODING 83
SWIDTH 547 0
DWIDTH 8 0
BBX 6 11 1 0
BITMAP
78
CC
84
80
40
38
04
04
84
8C
78
ENDCHAR

STARTCHAR T
ENCODING 84
SWIDTH 501 0
DWIDTH 7 0
BBX 7 11 0 0
BITMAP
FE
10
10
10
10
10
10
10
10
10
10
ENDCHAR

STARTCHAR U
ENCODING 85
SWIDTH 592 0
DWIDTH 9 0
BBX 7 11 1 0
BITMAP
82
82
82
82
82
82
82
82
82
44
38
ENDCHAR

STARTCHAR V
ENCODING 86
SWIDTH 547 0
DWIDTH 9 0
BBX 7 11 1 0
BITMAP
82
82
44
44
44
28
28
28
10
10
10
ENDCHAR

STARTCHAR W
ENCODING 87
SWIDTH 774 0
DWIDTH 11 0
BBX 9 11 1 0
BITMAP
8880
8880
8880
4900
5500
5500
5500
2200
2200
2200
2200
ENDCHAR

STARTCHAR X
ENCODING 88
SWIDTH 547 0
DWIDTH 9 0
BBX 7 11 1 0
BITMAP
82
82
44
28
10
10
28
44
44
82
82
ENDCHAR

STARTCHAR Y
ENCODING 89
SWIDTH 547 0
DWIDTH 9 0
BBX 7 11 1 0
BITMAP
82
82
44
44
28
28
10
10
10
10
10
ENDCHAR

STARTCHAR Z
ENCODING 90
SWIDTH 501 0
DWIDTH 8 0
BBX 6 11 1 0
BITMAP
FC
04
08
10
10
20
40
40
80
80
FC
ENDCHAR

STARTCHAR bracketleft
ENCODING 91
SWIDTH 228 0
DWIDTH 3 0
BBX 2 14 0 -3
BITMAP
C0
80
80
80
80
80
80
80
80
80
80
80
80
C0
ENDCHAR

STARTCHAR backslash
ENCODING 92
SWIDTH 228 0
DWIDTH 5 0
BBX 4 11 0 0
BITMAP
80
80
40
40
40
20
20
20
10
10
10
ENDCHAR

STARTCHAR bracketright
ENCODING 93
SWIDTH 228 0
DWIDTH 3 0
BBX 2 14 0 -3
BITMAP
C0
40
40
40
40
40
40
40
40
40
40
40
40
C0
ENDCHAR

STARTCHAR asciicircum
ENCODING 94
SWIDTH 385 0
DWIDTH 6 0
BBX 5 5 1 6
BITMAP
20
50
50
88
88
ENDCHAR

STARTCHAR underscore
ENCODING 95
SWIDTH 456 0
DWIDTH 7 0
BBX 7 1 0 -3
BITMAP
FE
ENDCHAR

STARTCHAR quoteleft
ENCODING 96
SWIDTH 182 0
DWIDTH 3 0
BBX 2 3 0 8
BITMAP
40
80
C0
ENDCHAR

STARTCHAR a
ENCODING 97
SWIDTH 456 0
DWIDTH 7 0
BBX 6 8 0 0
BITMAP
70
88
08
78
88
88
98
6C
ENDCHAR

STARTCHAR b
ENCODING 98
SWIDTH 456 0
DWIDTH 6 0
BBX 5 11 0 0
BITMAP
80
80
80
B0
C8
88
88
88
88
C8
B0
ENDCHAR

STARTCHAR c
ENCODING 99
SWIDTH 410 0
DWIDTH 6 0
BBX 5 8 0 0
BITMAP
70
88
80
80
80
88
88
70
ENDCHAR

STARTCHAR d
ENCODING 100
SWIDTH 456 0
DWIDTH 6 0
BBX 5 11 0 0
BITMAP
08
08
08
68
98
88
88
88
88
98
68
ENDCHAR

STARTCHAR e
ENCODING 101
SWIDTH 456 0
DWIDTH 6 0
BBX 5 8 0 0
BITMAP
70
88
88
F8
80
80
88
70
ENDCHAR

STARTCHAR f
ENCODING 102
SWIDTH 228 0
DWIDTH 4 0
BBX 3 11 0 0
BITMAP
20
40
40
E0
40
40
40
40
40
40
40
ENDCHAR

STARTCHAR g
ENCODING 103
SWIDTH 456 0
DWIDTH 6 0
BBX 5 11 0 -3
BITMAP
68
98
88
88
88
88
98
68
08
88
70
ENDCHAR

STARTCHAR h
ENCODING 104
SWIDTH 456 0
DWIDTH 6 0
BBX 5 11 0 0
BITMAP
80
80
80
B0
C8
88
88
88
88
88
88
ENDCHAR

STARTCHAR i
ENCODING 105
SWIDTH 182 0
DWIDTH 2 0
BBX 1 11 0 0
BITMAP
80
80
00
80
80
80
80
80
80
80
80
ENDCHAR

STARTCHAR j
ENCODING 106
SWIDTH 182 0
DWIDTH 2 0
BBX 2 14 -1 -3
BITMAP
40
40
00
40
40
40
40
40
40
40
40
40
40
80
ENDCHAR

STARTCHAR k
ENCODING 107
SWIDTH 410 0
DWIDTH 6 0
BBX 5 11 0 0
BITMAP
80
80
80
88
90
A0
C0
C0
A0
90
88
ENDCHAR

STARTCHAR l
ENCODING 108
SWIDTH 182 0
DWIDTH 2 0
BBX 1 11 0 0
BITMAP
80
80
80
80
80
80
80
80
80
80
80
ENDCHAR

STARTCHAR m
ENCODING 109
SWIDTH 683 0
DWIDTH 10 0
BBX 9 8 0 0
BITMAP
B300
CC80
8880
8880
8880
8880
8880
8880
ENDCHAR

STARTCHAR n
ENCODING 110
SWIDTH 456 0
DWIDTH 6 0
BBX 5 8 0 0
BITMAP
B0
C8
88
88
88
88
88
88
ENDCHAR

STARTCHAR o
ENCODING 111
SWIDTH 456 0
DWIDTH 6 0
BBX 5 8 0 0
BITMAP
70
88
88
88
88
88
88
70
ENDCHAR

STARTCHAR p
ENCODING 112
SWIDTH 456 0
DWIDTH 6 0
BBX 5 11 0 -3
BITMAP
B0
C8
88
88
88
88
C8
B0
80
80
80
ENDCHAR

STARTCHAR q
ENCODING 113
SWIDTH 456 0
DWIDTH 6 0
BBX 5 11 0 -3
BITMAP
68
98
88
88
88
88
98
68
08
08
08
ENDCHAR

STARTCHAR r
ENCODING 114
SWIDTH 273 0
DWIDTH 4 0
BBX 3 8 0 0
BITMAP
A0
C0
80
80
80
80
80
80
ENDCHAR

STARTCHAR s
ENCODING 115
SWIDTH 410 0
DWIDTH 6 0
BBX 5 8 0 0
BITMAP
70
88
80
70
08
08
88
70
ENDCHAR

STARTCHAR t
ENCODING 116
SWIDTH 228 0
DWIDTH 5 0
BBX 4 10 0 0
BITMAP
40
40
F0
40
40
40
40
40
40
30
ENDCHAR

STARTCHAR u
ENCODING 117
SWIDTH 456 0
DWIDTH 6 0
BBX 5 8 0 0
BITMAP
88
88
88
88
88
88
D8
68
ENDCHAR

STARTCHAR v
ENCODING 118
SWIDTH 410 0
DWIDTH 6 0
BBX 5 8 0 0
BITMAP
88
88
88
50
50
50
20
20
ENDCHAR

STARTCHAR w
ENCODING 119
SWIDTH 592 0
DWIDTH 8 0
BBX 7 8 0 0
BITMAP
92
92
92
54
54
54
28
28
ENDCHAR

STARTCHAR x
ENCODING 120
SWIDTH 410 0
DWIDTH 6 0
BBX 5 8 0 0
BITMAP
88
88
50
20
20
50
88
88
ENDCHAR

STARTCHAR y
ENCODING 121
SWIDTH 410 0
DWIDTH 6 0
BBX 5 11 0 -3
BITMAP
88
88
88
50
50
50
30
20
20
20
C0
ENDCHAR

STARTCHAR z
ENCODING 122
SWIDTH 410 0
DWIDTH 6 0
BBX 5 8 0 0
BITMAP
F8
08
10
20
20
40
80
F8
ENDCHAR

STARTCHAR braceleft
ENCODING 123
SWIDTH 274 0
DWIDTH 4 0
BBX 3 14 0 -3
BITMAP
20
40
40
40
40
40
80
40
40
40
40
40
40
20
ENDCHAR

STARTCHAR bar
ENCODING 124
SWIDTH 213 0
DWIDTH 3 0
BBX 1 14 1 -3
BITMAP
80
80
80
80
80
80
80
80
80
80
80
80
80
80
ENDCHAR

STARTCHAR braceright
ENCODING 125
SWIDTH 274 0
DWIDTH 4 0
BBX 3 14 0 -3
BITMAP
80
40
40
40
40
40
20
40
40
40
40
40
40
80
ENDCHAR

STARTCHAR asciitilde
ENCODING 126
SWIDTH 479 0
DWIDTH 7 0
BBX 6 3 1 3
BITMAP
64
B4
98
ENDCHAR

STARTCHAR exclamdown
ENCODING 161
SWIDTH 273 0
DWIDTH 4 0
BBX 1 11 1 -3
BITMAP
80
80
00
80
80
80
80
80
80
80
80
ENDCHAR

STARTCHAR cent
ENCODING 162
SWIDTH 456 0
DWIDTH 7 0
BBX 5 10 1 -1
BITMAP
08
70
D8
A0
A0
A0
C8
C8
70
80
ENDCHAR

STARTCHAR sterling
ENCODING 163
SWIDTH 456 0
DWIDTH 7 0
BBX 7 10 0 0
BITMAP
38
44
40
20
F8
20
20
42
66
DC
ENDCHAR

STARTCHAR currency
ENCODING 164
SWIDTH 456 0
DWIDTH 7 0
BBX 6 6 0 2
BITMAP
84
78
48
48
78
84
ENDCHAR

STARTCHAR yen
ENCODING 165
SWIDTH 456 0
DWIDTH 7 0
BBX 7 10 0 0
BITMAP
82
82
44
44
28
7C
10
7C
10
10
ENDCHAR

STARTCHAR brokenbar
ENCODING 166
SWIDTH 213 0
DWIDTH 3 0
BBX 1 14 1 -3
BITMAP
80
80
80
80
80
80
00
00
80
80
80
80
80
80
ENDCHAR

STARTCHAR section
ENCODING 167
SWIDTH 456 0
DWIDTH 6 0
BBX 5 14 0 -3
BITMAP
70
D8
88
C0
70
98
88
88
C8
70
18
88
D8
70
ENDCHAR

STARTCHAR dieresis
ENCODING 168
SWIDTH 273 0
DWIDTH 5 0
BBX 5 1 0 9
BITMAP
D8
ENDCHAR

STARTCHAR copyright
ENCODING 169
SWIDTH 604 0
DWIDTH 11 0
BBX 10 10 0 0
BITMAP
1E00
6180
4C80
9240
9040
9040
9240
4C80
6180
1E00
ENDCHAR

STARTCHAR ordfeminine
ENCODING 170
SWIDTH 303 0
DWIDTH 5 0
BBX 4 7 0 4
BITMAP
E0
10
70
90
D0
00
F0
ENDCHAR

STARTCHAR guillemotleft
ENCODING 171
SWIDTH 456 0
DWIDTH 7 0
BBX 6 5 1 2
BITMAP
24
48
90
48
24
ENDCHAR

STARTCHAR logicalnot
ENCODING 172
SWIDTH 479 0
DWIDTH 7 0
BBX 6 4 0 1
BITMAP
FC
04
04
04
ENDCHAR

STARTCHAR hyphen
ENCODING 173
SWIDTH 273 0
DWIDTH 4 0
BBX 3 1 0 4
BITMAP
E0
ENDCHAR

STARTCHAR registered
ENCODING 174
SWIDTH 604 0
DWIDTH 11 0
BBX 10 10 0 0
BITMAP
1E00
6180
5C80
9240
9240
9C40
9240
5280
6180
1E00
ENDCHAR

STARTCHAR macron
ENCODING 175
SWIDTH 273 0
DWIDTH 4 0
BBX 4 1 0 9
BITMAP
F0
ENDCHAR

STARTCHAR degree
ENCODING 176
SWIDTH 328 0
DWIDTH 6 0
BBX 4 4 1 7
BITMAP
60
90
90
60
ENDCHAR

STARTCHAR plusminus
ENCODING 177
SWIDTH 479 0
DWIDTH 7 0
BBX 5 7 1 1
BITMAP
20
20
F8
20
20
00
F8
ENDCHAR

STARTCHAR twosuperior
ENCODING 178
SWIDTH 273 0
DWIDTH 4 0
BBX 4 6 0 5
BITMAP
60
90
20
40
80
F0
ENDCHAR

STARTCHAR threesuperior
ENCODING 179
SWIDTH 273 0
DWIDTH 4 0
BBX 4 6 0 5
BITMAP
E0
10
60
10
90
60
ENDCHAR

STARTCHAR acute
ENCODING 180
SWIDTH 273 0
DWIDTH 4 0
BBX 2 2 1 9
BITMAP
40
80
ENDCHAR

STARTCHAR mu
ENCODING 181
SWIDTH 456 0
DWIDTH 6 0
BBX 5 11 0 -3
BITMAP
88
88
88
88
88
88
D8
E8
80
80
80
ENDCHAR

STARTCHAR paragraph
ENCODING 182
SWIDTH 440 0
DWIDTH 7 0
BBX 6 14 0 -3
BITMAP
3C
68
E8
E8
E8
68
28
28
28
28
28
28
28
28
ENDCHAR

STARTCHAR periodcentered
ENCODING 183
SWIDTH 228 0
DWIDTH 3 0
BBX 1 2 1 4
BITMAP
80
80
ENDCHAR

STARTCHAR cedilla
ENCODING 184
SWIDTH 273 0
DWIDTH 4 0
BBX 4 3 0 -3
BITMAP
20
90
60
ENDCHAR

STARTCHAR onesuperior
ENCODING 185
SWIDTH 273 0
DWIDTH 4 0
BBX 2 6 0 5
BITMAP
40
C0
40
40
40
40
ENDCHAR

STARTCHAR ordmasculine
ENCODING 186
SWIDTH 299 0
DWIDTH 5 0
BBX 4 7 0 4
BITMAP
60
90
90
90
60
00
F0
ENDCHAR

STARTCHAR guillemotright
ENCODING 187
SWIDTH 456 0
DWIDTH 7 0
BBX 6 5 1 2
BITMAP
90
48
24
48
90
ENDCHAR

STARTCHAR onequarter
ENCODING 188
SWIDTH 684 0
DWIDTH 11 0
BBX 10 11 0 0
BITMAP
4100
C100
4200
4200
4400
4C80
0980
1280
1480
27C0
2080
ENDCHAR

STARTCHAR onehalf
ENCODING 189
SWIDTH 684 0
DWIDTH 11 0
BBX 10 11 0 0
BITMAP
4100
C100
4200
4200
4400
4D80
0A40
1080
1100
2200
23C0
ENDCHAR

STARTCHAR threequarters
ENCODING 190
SWIDTH 684 0
DWIDTH 11 0
BBX 10 11 0 0
BITMAP
E100
1100
6200
1200
9400
6C80
0980
1280
1480
27C0
2080
ENDCHAR

STARTCHAR questiondown
ENCODING 191
SWIDTH 501 0
DWIDTH 6 0
BBX 5 11 0 -3
BITMAP
20
20
00
20
20
40
80
88
88
D8
70
ENDCHAR

STARTCHAR Agrave
ENCODING 192
SWIDTH 547 0
DWIDTH 9 0
BBX 7 11 1 0
BITMAP
20
10
00
10
10
28
44
7C
82
82
82
ENDCHAR

STARTCHAR Aacute
ENCODING 193
SWIDTH 547 0
DWIDTH 9 0
BBX 7 11 1 0
BITMAP
10
20
00
10
10
28
44
7C
82
82
82
ENDCHAR

STARTCHAR Acircumflex
ENCODING 194
SWIDTH 547 0
DWIDTH 9 0
BBX 7 11 1 0
BITMAP
10
28
00
10
10
28
44
7C
82
82
82
ENDCHAR

STARTCHAR Atilde
ENCODING 195
SWIDTH 547 0
DWIDTH 9 0
BBX 7 11 1 0
BITMAP
34
58
00
10
10
28
44
7C
82
82
82
ENDCHAR

STARTCHAR Adieresis
ENCODING 196
SWIDTH 547 0
DWIDTH 9 0
BBX 7 11 1 0
BITMAP
6C
00
00
10
10
28
44
7C
82
82
82
ENDCHAR

STARTCHAR Aring
ENCODING 197
SWIDTH 547 0
DWIDTH 9 0
BBX 7 11 1 0
BITMAP
30
48
30
10
10
28
44
7C
82
82
82
ENDCHAR

STARTCHAR AE
ENCODING 198
SWIDTH 820 0
DWIDTH 12 0
BBX 10 11 1 0
BITMAP
0FC0
1C00
1400
1400
2400
27C0
4400
7C00
4400
8400
87C0
ENDCHAR

STARTCHAR Ccedilla
ENCODING 199
SWIDTH 592 0
DWIDTH 9 0
BBX 7 14 1 -3
BITMAP
18
66
42
80
80
80
80
80
42
66
18
10
48
30
ENDCHAR

STARTCHAR Egrave
ENCODING 200
SWIDTH 547 0
DWIDTH 7 0
BBX 5 11 1 0
BITMAP
40
20
00
F8
80
80
F0
80
80
80
F8
ENDCHAR

STARTCHAR Eacute
ENCODING 201
SWIDTH 547 0
DWIDTH 7 0
BBX 5 11 1 0
BITMAP
20
40
00
F8
80
80
F0
80
80
80
F8
ENDCHAR

STARTCHAR Ecircumflex
ENCODING 202
SWIDTH 547 0
DWIDTH 7 0
BBX 5 11 1 0
BITMAP
20
50
00
F8
80
80
F0
80
80
80
F8
ENDCHAR

STARTCHAR Edieresis
ENCODING 203
SWIDTH 547 0
DWIDTH 7 0
BBX 5 11 1 0
BITMAP
D8
00
00
F8
80
80
F0
80
80
80
F8
ENDCHAR

STARTCHAR Igrave
ENCODING 204
SWIDTH 228 0
DWIDTH 3 0
BBX 2 11 1 0
BITMAP
80
40
00
80
80
80
80
80
80
80
80
ENDCHAR

STARTCHAR Iacute
ENCODING 205
SWIDTH 228 0
DWIDTH 3 0
BBX 2 11 1 0
BITMAP
40
80
00
80
80
80
80
80
80
80
80
ENDCHAR

STARTCHAR Icircumflex
ENCODING 206
SWIDTH 228 0
DWIDTH 3 0
BBX 3 11 0 0
BITMAP
40
A0
00
40
40
40
40
40
40
40
40
ENDCHAR

STARTCHAR Idieresis
ENCODING 207
SWIDTH 228 0
DWIDTH 3 0
BBX 5 11 -1 0
BITMAP
D8
00
00
20
20
20
20
20
20
20
20
ENDCHAR

STARTCHAR Eth
ENCODING 208
SWIDTH 592 0
DWIDTH 9 0
BBX 8 11 0 0
BITMAP
78
46
42
41
41
F1
41
41
42
46
78
ENDCHAR

STARTCHAR Ntilde
ENCODING 209
SWIDTH 592 0
DWIDTH 9 0
BBX 7 11 1 0
BITMAP
34
58
00
C2
C2
A2
92
92
8A
86
86
ENDCHAR

STARTCHAR Ograve
ENCODING 210
SWIDTH 638 0
DWIDTH 10 0
BBX 8 11 1 0
BITMAP
10
08
00
18
66
42
81
81
42
66
18
ENDCHAR

STARTCHAR Oacute
ENCODING 211
SWIDTH 638 0
DWIDTH 10 0
BBX 8 11 1 0
BITMAP
08
10
00
18
66
42
81
81
42
66
18
ENDCHAR

STARTCHAR Ocircumflex
ENCODING 212
SWIDTH 638 0
DWIDTH 10 0
BBX 8 11 1 0
BITMAP
10
28
00
18
66
42
81
81
42
66
18
ENDCHAR

STARTCHAR Otilde
ENCODING 213
SWIDTH 638 0
DWIDTH 10 0
BBX 8 11 1 0
BITMAP
34
58
00
18
66
42
81
81
42
66
18
ENDCHAR

STARTCHAR Odieresis
ENCODING 214
SWIDTH 638 0
DWIDTH 10 0
BBX 8 11 1 0
BITMAP
6C
00
00
18
66
42
81
81
42
66
18
ENDCHAR

STARTCHAR multiply
ENCODING 215
SWIDTH 479 0
DWIDTH 7 0
BBX 5 6 1 1
BITMAP
88
50
20
20
50
88
ENDCHAR

STARTCHAR Oslash
ENCODING 216
SWIDTH 638 0
DWIDTH 10 0
BBX 10 11 0 0
BITMAP
0C40
3380
2100
4280
4480
4880
5080
6080
2100
7300
8C00
ENDCHAR

STARTCHAR Ugrave
ENCODING 217
SWIDTH 592 0
DWIDTH 9 0
BBX 7 11 1 0
BITMAP
10
08
00
82
82
82
82
82
82
44
38
ENDCHAR

STARTCHAR Uacute
ENCODING 218
SWIDTH 592 0
DWIDTH 9 0
BBX 7 11 1 0
BITMAP
10
20
00
82
82
82
82
82
82
44
38
ENDCHAR

STARTCHAR Ucircumflex
ENCODING 219
SWIDTH 592 0
DWIDTH 9 0
BBX 7 11 1 0
BITMAP
10
28
00
82
82
82
82
82
82
44
38
ENDCHAR

STARTCHAR Udieresis
ENCODING 220
SWIDTH 592 0
DWIDTH 9 0
BBX 7 11 1 0
BITMAP
6C
00
00
82
82
82
82
82
82
44
38
ENDCHAR

STARTCHAR Yacute
ENCODING 221
SWIDTH 547 0
DWIDTH 9 0
BBX 7 11 1 0
BITMAP
08
10
82
44
44
28
10
10
10
10
10
ENDCHAR

STARTCHAR Thorn
ENCODING 222
SWIDTH 547 0
DWIDTH 8 0
BBX 6 11 1 0
BITMAP
80
80
F8
8C
84
84
8C
F8
80
80
80
ENDCHAR

STARTCHAR germandbls
ENCODING 223
SWIDTH 501 0
DWIDTH 7 0
BBX 5 11 1 0
BITMAP
70
88
88
88
B0
90
88
88
88
88
B0
ENDCHAR

STARTCHAR agrave
ENCODING 224
SWIDTH 456 0
DWIDTH 7 0
BBX 6 11 0 0
BITMAP
20
10
00
70
88
08
78
88
88
98
6C
ENDCHAR

STARTCHAR aacute
ENCODING 225
SWIDTH 456 0
DWIDTH 7 0
BBX 6 11 0 0
BITMAP
10
20
00
70
88
08
78
88
88
98
6C
ENDCHAR

STARTCHAR acircumflex
ENCODING 226
SWIDTH 456 0
DWIDTH 7 0
BBX 6 11 0 0
BITMAP
20
50
00
70
88
08
78
88
88
98
6C
ENDCHAR

STARTCHAR atilde
ENCODING 227
SWIDTH 456 0
DWIDTH 7 0
BBX 6 11 0 0
BITMAP
68
B0
00
70
88
08
78
88
88
98
6C
ENDCHAR

STARTCHAR adieresis
ENCODING 228
SWIDTH 456 0
DWIDTH 7 0
BBX 6 10 0 0
BITMAP
D8
00
70
88
08
78
88
88
98
6C
ENDCHAR

STARTCHAR aring
ENCODING 229
SWIDTH 456 0
DWIDTH 7 0
BBX 6 11 0 0
BITMAP
30
48
30
70
88
08
78
88
88
98
6C
ENDCHAR

STARTCHAR ae
ENCODING 230
SWIDTH 729 0
DWIDTH 10 0
BBX 9 8 0 0
BITMAP
7700
8880
0880
7F80
8800
8800
8880
7700
ENDCHAR

STARTCHAR ccedilla
ENCODING 231
SWIDTH 410 0
DWIDTH 6 0
BBX 5 11 0 -3
BITMAP
70
88
80
80
80
88
88
70
20
90
60
ENDCHAR

STARTCHAR egrave
ENCODING 232
SWIDTH 456 0
DWIDTH 6 0
BBX 5 11 0 0
BITMAP
40
20
00
70
88
88
F8
80
80
88
70
ENDCHAR

STARTCHAR eacute
ENCODING 233
SWIDTH 456 0
DWIDTH 6 0
BBX 5 11 0 0
BITMAP
20
40
00
70
88
88
F8
80
80
88
70
ENDCHAR

STARTCHAR ecircumflex
ENCODING 234
SWIDTH 456 0
DWIDTH 6 0
BBX 5 11 0 0
BITMAP
20
50
00
70
88
88
F8
80
80
88
70
ENDCHAR

STARTCHAR edieresis
ENCODING 235
SWIDTH 456 0
DWIDTH 6 0
BBX 5 10 0 0
BITMAP
D8
00
70
88
88
F8
80
80
88
70
ENDCHAR

STARTCHAR igrave
ENCODING 236
SWIDTH 228 0
DWIDTH 2 0
BBX 2 11 0 0
BITMAP
80
40
00
80
80
80
80
80
80
80
80
ENDCHAR

STARTCHAR iacute
ENCODING 237
SWIDTH 228 0
DWIDTH 2 0
BBX 2 11 0 0
BITMAP
40
80
00
80
80
80
80
80
80
80
80
ENDCHAR

STARTCHAR icircumflex
ENCODING 238
SWIDTH 228 0
DWIDTH 2 0
BBX 3 11 -1 0
BITMAP
40
A0
00
40
40
40
40
40
40
40
40
ENDCHAR

STARTCHAR idieresis
ENCODING 239
SWIDTH 228 0
DWIDTH 2 0
BBX 5 10 -2 0
BITMAP
D8
00
20
20
20
20
20
20
20
20
ENDCHAR

STARTCHAR eth
ENCODING 240
SWIDTH 456 0
DWIDTH 6 0
BBX 5 11 0 0
BITMAP
50
20
50
78
88
88
88
88
88
88
70
ENDCHAR

STARTCHAR ntilde
ENCODING 241
SWIDTH 456 0
DWIDTH 6 0
BBX 5 11 0 0
BITMAP
68
B0
00
B0
C8
88
88
88
88
88
88
ENDCHAR

STARTCHAR ograve
ENCODING 242
SWIDTH 456 0
DWIDTH 6 0
BBX 5 11 0 0
BITMAP
40
20
00
70
88
88
88
88
88
88
70
ENDCHAR

STARTCHAR oacute
ENCODING 243
SWIDTH 456 0
DWIDTH 6 0
BBX 5 11 0 0
BITMAP
20
40
00
70
88
88
88
88
88
88
70
ENDCHAR

STARTCHAR ocircumflex
ENCODING 244
SWIDTH 456 0
DWIDTH 6 0
BBX 5 11 0 0
BITMAP
20
50
00
70
88
88
88
88
88
88
70
ENDCHAR

STARTCHAR otilde
ENCODING 245
SWIDTH 456 0
DWIDTH 6 0
BBX 5 11 0 0
BITMAP
68
B0
00
70
88
88
88
88
88
88
70
ENDCHAR

STARTCHAR odieresis
ENCODING 246
SWIDTH 456 0
DWIDTH 6 0
BBX 5 10 0 0
BITMAP
D8
00
70
88
88
88
88
88
88
70
ENDCHAR

STARTCHAR divide
ENCODING 247
SWIDTH 479 0
DWIDTH 7 0
BBX 5 5 1 1
BITMAP
20
00
F8
00
20
ENDCHAR

STARTCHAR oslash
ENCODING 248
SWIDTH 501 0
DWIDTH 6 0
BBX 7 8 -1 0
BITMAP
3A
44
4C
54
54
64
44
B8
ENDCHAR

STARTCHAR ugrave
ENCODING 249
SWIDTH 456 0
DWIDTH 6 0
BBX 5 11 0 0
BITMAP
40
20
00
88
88
88
88
88
88
D8
68
ENDCHAR

STARTCHAR uacute
ENCODING 250
SWIDTH 456 0
DWIDTH 6 0
BBX 5 11 0 0
BITMAP
20
40
00
88
88
88
88
88
88
D8
68
ENDCHAR

STARTCHAR ucircumflex
ENCODING 251
SWIDTH 456 0
DWIDTH 6 0
BBX 5 11 0 0
BITMAP
20
50
00
88
88
88
88
88
88
D8
68
ENDCHAR

STARTCHAR udieresis
ENCODING 252
SWIDTH 456 0
DWIDTH 6 0
BBX 5 10 0 0
BITMAP
D8
00
88
88
88
88
88
88
D8
68
ENDCHAR

STARTCHAR yacute
ENCODING 253
SWIDTH 410 0
DWIDTH 6 0
BBX 5 14 0 -3
BITMAP
10
20
00
88
88
88
50
50
50
30
20
20
20
C0
ENDCHAR

STARTCHAR thorn
ENCODING 254
SWIDTH 456 0
DWIDTH 6 0
BBX 5 14 0 -3
BITMAP
80
80
80
B0
C8
88
88
88
88
C8
B0
80
80
80
ENDCHAR

STARTCHAR ydieresis
ENCODING 255
SWIDTH 410 0
DWIDTH 6 0
BBX 5 13 0 -3
BITMAP
D8
00
88
88
88
50
50
50
30
20
20
20
C0
ENDCHAR
ENDFONT
